<svg xmlns="http://www.w3.org/2000/svg" viewBox="0 0 300.36 300.36"><defs><style>.cls-1{fill:#8200ff;}.cls-2{fill:#fff;}</style></defs><g id="Layer_2" data-name="Layer 2"><g id="Layer_1-2" data-name="Layer 1"><path class="cls-1" d="M300.36,64.67v171a66.57,66.57,0,0,1-66.55,64.66H66.57A66.58,66.58,0,0,1,0,233.79V66.58A66.58,66.58,0,0,1,66.57,0H233.81A66.57,66.57,0,0,1,300.36,64.67Z"/><path class="cls-2" d="M217.92,197.69s15.22-16.43,15.22-33.25-28.84-9.62-28.84-9.62,14.16-16.1,6.27-34.3a25.82,25.82,0,1,0-43.36-28,77.4,77.4,0,0,0-17-2.19,77.8,77.8,0,0,0-17.1,2.21l-1.36-1.42c-.48-.48-1-1-1.52-1.43a25.81,25.81,0,0,0-40.75,31.67c-7.12,17.85,6.61,33.47,6.61,33.47s-28.84-7.21-28.84,9.62,15.22,33.25,15.22,33.25C41.58,206.5,54.8,220.13,54.8,220.13h60.14L122,176.74a1.93,1.93,0,0,1,2.85-1.37l11.22,6.36a1.91,1.91,0,0,0,2.5-.53l10.06-13.65a1.92,1.92,0,0,1,3.1,0l10.06,13.65a1.91,1.91,0,0,0,2.5.53l11.22-6.36a1.93,1.93,0,0,1,2.85,1.37l7.06,43.39h60.14S258.78,206.5,217.92,197.69ZM110.24,119a12.91,12.91,0,1,1,12.91-12.9A12.9,12.9,0,0,1,110.24,119Zm79,0a12.91,12.91,0,1,1,12.91-12.9A12.91,12.91,0,0,1,189.19,119Z"/></g></g></svg>
